<mxfile host="app.diagrams.net" modified="2024-04-16T08:44:07.344Z" agent="Mozilla/5.0 (Macintosh; Intel Mac OS X 10_15_7) AppleWebKit/537.36 (KHTML, like Gecko) Chrome/123.0.0.0 Safari/537.36" version="24.2.5" etag="c8zwARPq6vvkW4bQa6Bl" type="github">
  <diagram name="第 1 页" id="A4QC9PffuXcLF4Te_ec6">
    <mxGraphModel>
      <root>
        <mxCell id="0" />
        <mxCell id="1" parent="0" />
      </root>
    </mxGraphModel>
  </diagram>
</mxfile>
